<svg width="71" height="67" viewBox="0 0 71 67" fill="none" xmlns="http://www.w3.org/2000/svg">
<path d="M66.2846 38.6334L58.4652 19.115C58.3952 18.9216 58.2821 18.7468 58.1344 18.6037L53.8638 14.3331L49.4729 2.60395C49.3864 2.40312 49.2641 2.21969 49.112 2.0626C47.5552 0.750005 45.5845 0.0300749 43.5482 0.0300749C41.5119 0.0300749 39.5411 0.750005 37.9843 2.0626C37.701 2.34024 37.5389 2.71858 37.5332 3.11522V18.1225H33.022V3.08514C33.0164 2.6885 32.8542 2.31016 32.5709 2.03253C31.0141 0.71993 29.0434 0 27.0071 0C24.9708 0 23 0.71993 21.4433 2.03253C21.2912 2.18962 21.1689 2.37305 21.0824 2.57387L16.6915 14.3331L12.4208 18.6037C12.2732 18.7468 12.16 18.9216 12.09 19.115L4.2706 38.6334C2.47209 40.6201 1.1842 43.0148 0.518124 45.6105C-0.14795 48.2063 -0.172183 50.9252 0.447518 53.5324C1.06722 56.1396 2.31223 58.5568 4.07504 60.5753C5.83785 62.5937 8.06547 64.1527 10.5656 65.1177C13.0656 66.0827 15.763 66.4247 18.4248 66.114C21.0866 65.8034 23.6328 64.8495 25.8435 63.3348C28.0542 61.8201 29.863 59.79 31.1137 57.4199C32.3643 55.0498 33.0193 52.4109 33.022 49.731V33.1598C33.5228 33.1285 34.025 33.1285 34.5258 33.1598C35.5362 33.15 36.5447 33.2508 37.5332 33.4606V49.8814C37.5233 52.5727 38.1702 55.2257 39.4178 57.6104C40.6655 59.995 42.4761 62.0392 44.6927 63.5657C46.9093 65.0921 49.4648 66.0546 52.1376 66.3697C54.8104 66.6848 57.5197 66.3429 60.0305 65.3738C62.5413 64.4047 64.7776 62.8376 66.5456 60.8084C68.3136 58.7793 69.5597 56.3494 70.1759 53.7296C70.7921 51.1098 70.7597 48.3792 70.0816 45.7747C69.4035 43.1702 68.1002 40.7705 66.2846 38.7838V38.6334ZM27.0071 49.731C27.0011 51.8116 26.3787 53.8437 25.2185 55.5708C24.0583 57.2979 22.4122 58.6423 20.4883 59.4344C18.5644 60.2265 16.4489 60.4307 14.409 60.0211C12.3691 59.6116 10.4964 58.6067 9.02725 57.1334C7.55815 55.6601 6.55862 53.7845 6.15489 51.7434C5.75117 49.7024 5.96137 47.5875 6.75895 45.6658C7.55652 43.7442 8.9057 42.102 10.6361 40.9467C12.3664 39.7914 14.4003 39.1748 16.4809 39.1748C17.8658 39.1748 19.237 39.448 20.5161 39.9789C21.7951 40.5098 22.9569 41.2878 23.9347 42.2684C24.9125 43.2491 25.6873 44.413 26.2145 45.6936C26.7417 46.9742 27.011 48.3462 27.0071 49.731ZM54.0743 60.2572C51.9924 60.2572 49.9573 59.6398 48.2263 58.4832C46.4953 57.3265 45.1461 55.6826 44.3494 53.7592C43.5527 51.8358 43.3443 49.7193 43.7504 47.6775C44.1566 45.6356 45.1591 43.76 46.6312 42.2879C48.1033 40.8158 49.9789 39.8133 52.0208 39.4071C54.0626 39.001 56.1791 39.2094 58.1025 40.0061C60.0259 40.8028 61.6699 42.152 62.8265 43.883C63.9831 45.614 64.6005 47.6491 64.6005 49.731C64.5925 52.5175 63.48 55.1871 61.5068 57.1547C59.5336 59.1222 56.8608 60.2271 54.0743 60.2271V60.2572Z" fill="white"/>
</svg>
