<svg width="35" height="35" viewBox="0 0 35 35" fill="none" xmlns="http://www.w3.org/2000/svg">
<path d="M29.5848 11.8115V6.27521C29.5848 5.2898 28.7785 4.48355 27.7931 4.48355H22.2569L18.2973 0.523962C18.1315 0.357868 17.9347 0.226096 17.7179 0.136187C17.5012 0.0462787 17.2688 0 17.0342 0C16.7995 0 16.5672 0.0462787 16.3504 0.136187C16.1337 0.226096 15.9368 0.357868 15.771 0.523962L11.8115 4.48355H6.27521C5.28979 4.48355 4.48354 5.2898 4.48354 6.27521V11.8115L0.523962 15.771C0.357868 15.9368 0.226096 16.1337 0.136187 16.3504C0.0462787 16.5672 0 16.7995 0 17.0342C0 17.2688 0.0462787 17.5012 0.136187 17.7179C0.226096 17.9347 0.357868 18.1315 0.523962 18.2973L4.48354 22.2569V27.7931C4.48354 28.7785 5.28979 29.5848 6.27521 29.5848H11.8115L15.771 33.5444C16.1294 33.9027 16.5773 34.064 17.0431 34.064C17.509 34.064 17.9569 33.8848 18.3152 33.5444L22.2748 29.5848H27.811C28.7965 29.5848 29.6027 28.7785 29.6027 27.7931V22.2569L33.5623 18.2973C33.7284 18.1315 33.8602 17.9347 33.9501 17.7179C34.04 17.5012 34.0863 17.2688 34.0863 17.0342C34.0863 16.7995 34.04 16.5672 33.9501 16.3504C33.8602 16.1337 33.7284 15.9368 33.5623 15.771L29.6027 11.8115H29.5848ZM15.2515 23.1527L10.396 18.2973L12.9223 15.771L15.2335 18.0823L21.1281 12.1877L23.6544 14.714L15.2156 23.1527H15.2515Z" fill="#26A02D"/>
</svg>
