<svg width="68" height="50" viewBox="0 0 68 50" fill="none" xmlns="http://www.w3.org/2000/svg">
<path d="M49.6237 13.9764V12.4059C49.6237 5.33455 38.9575 0 24.8119 0C10.6663 0 0 5.33455 0 12.4059V23.6841C0 29.5741 7.40127 34.2545 18.045 35.6558V37.2178C18.045 44.2892 28.7113 49.6237 42.8569 49.6237C57.0025 49.6237 67.6687 44.2892 67.6687 37.2178V25.9397C67.6687 20.1033 60.5015 15.4172 49.6237 13.9764ZM13.5338 30.1323C8.01029 28.59 4.51125 26.0497 4.51125 23.6841V19.717C6.81199 21.3467 9.89373 22.6606 13.5338 23.5431V30.1323ZM36.09 23.5431C39.73 22.6606 42.8118 21.3467 45.1125 19.717V23.6841C45.1125 26.0497 41.6135 28.59 36.09 30.1323V23.5431ZM31.5788 43.6661C26.0553 42.1238 22.5562 39.5834 22.5562 37.2178V36.0421C23.2978 36.0703 24.0478 36.09 24.8119 36.09C25.9059 36.09 26.9745 36.0533 28.0233 35.9913C29.1885 36.4084 30.3754 36.7623 31.5788 37.0515V43.6661ZM31.5788 31.0853C29.3384 31.4163 27.0766 31.5812 24.8119 31.5788C22.5472 31.5812 20.2854 31.4163 18.045 31.0853V24.3777C20.2887 24.6698 22.5492 24.8149 24.8119 24.8119C27.0746 24.8149 29.335 24.6698 31.5788 24.3777V31.0853ZM49.6237 44.6191C45.1365 45.2768 40.5773 45.2768 36.09 44.6191V37.8945C38.333 38.196 40.5937 38.3467 42.8569 38.3456C45.1196 38.3486 47.38 38.2036 49.6237 37.9114V44.6191ZM63.1575 37.2178C63.1575 39.5834 59.6585 42.1238 54.135 43.6661V37.0768C57.775 36.1943 60.8568 34.8804 63.1575 33.2507V37.2178Z" fill="white"/>
</svg>
