<svg width="68" height="68" viewBox="0 0 68 68" fill="none" xmlns="http://www.w3.org/2000/svg">
<path d="M28.1687 36.8895C29.4213 38.5641 31.0193 39.9497 32.8545 40.9523C34.6896 41.9549 36.7189 42.5511 38.8048 42.7005C40.8906 42.8499 42.9842 42.549 44.9435 41.8181C46.9028 41.0872 48.682 39.9435 50.1604 38.4645L58.9104 29.7145C61.5668 26.9641 63.0368 23.2803 63.0035 19.4566C62.9703 15.6329 61.4366 11.9752 58.7327 9.27136C56.0289 6.56749 52.3712 5.03378 48.5475 5.00055C44.7238 4.96732 41.04 6.43724 38.2895 9.09371L33.2729 14.0812" stroke="white" stroke-width="10" stroke-linecap="round" stroke-linejoin="round"/>
<path d="M39.8354 31.0562C38.5828 29.3817 36.9848 27.9961 35.1496 26.9935C33.3145 25.9909 31.2852 25.3946 29.1993 25.2453C27.1135 25.0959 25.0199 25.3968 23.0606 26.1277C21.1013 26.8586 19.3221 28.0023 17.8437 29.4812L9.09371 38.2312C6.43724 40.9817 4.96732 44.6655 5.00055 48.4892C5.03378 52.3129 6.56749 55.9706 9.27136 58.6744C11.9752 61.3783 15.6329 62.912 19.4566 62.9452C23.2803 62.9785 26.9641 61.5085 29.7145 58.8521L34.702 53.8646" stroke="white" stroke-width="10" stroke-linecap="round" stroke-linejoin="round"/>
</svg>
