<svg width="59" height="66" viewBox="0 0 59 66" fill="none" xmlns="http://www.w3.org/2000/svg">
<path d="M0 63.1688V26.0688C0 24.7053 1.1053 23.6 2.46875 23.6H17.5359C18.8994 23.6 20.0047 24.7053 20.0047 26.0688V40.6953C20.0047 43.4222 22.2153 45.6328 24.9422 45.6328H31.6406C33.0041 45.6328 34.1094 46.7381 34.1094 48.1016V63.1688C34.1094 64.5322 33.0041 65.6375 31.6406 65.6375H2.46875C1.1053 65.6375 0 64.5322 0 63.1688Z" fill="black"/>
<path d="M24.8906 39.5688V2.46875C24.8906 1.1053 25.9959 0 27.3594 0H42.4266C43.79 0 44.8953 1.1053 44.8953 2.46875V17.0953C44.8953 19.8222 47.1059 22.0328 49.8328 22.0328H56.5313C57.8947 22.0328 59 23.1381 59 24.5016V39.5688C59 40.9322 57.8947 42.0375 56.5313 42.0375H27.3594C25.9959 42.0375 24.8906 40.9322 24.8906 39.5688Z" fill="black"/>
</svg>
