<svg width="58" height="58" viewBox="0 0 58 58" fill="none" xmlns="http://www.w3.org/2000/svg">
<path fill-rule="evenodd" clip-rule="evenodd" d="M57.1425 0C55.8713 17.3113 51.3601 29.8425 43.6087 37.5938C42.2341 38.9684 40.7289 40.2251 39.0932 41.3638V48.1061L30.0707 57.1286L24.5649 47.4937L9.66042 32.5877L0 27.0675L9.0225 18.045H15.8007C16.929 16.4078 18.1784 14.904 19.5488 13.5337C27.3002 5.78248 39.8314 1.27123 57.1425 0ZM19.2193 46.4811L23.4726 50.7344L17.0927 57.1143L12.8394 52.861L19.2193 46.4811ZM12.8394 40.1012L17.0927 44.3545L6.45955 54.9876L2.20628 50.7344L12.8394 40.1012ZM6.45955 33.7213L10.7128 37.9746L4.33291 44.3545L0.0796516 40.1012L6.45955 33.7213ZM34.5862 18.045C32.0947 18.045 30.075 20.0648 30.075 22.5562C30.075 25.0477 32.0947 27.0675 34.5862 27.0675C37.0777 27.0675 39.0975 25.0477 39.0975 22.5562C39.0975 20.0648 37.0777 18.045 34.5862 18.045Z" fill="white"/>
</svg>
