<svg width="31" height="31" viewBox="0 0 31 31" fill="none" xmlns="http://www.w3.org/2000/svg">
<g clip-path="url(#clip0_232_3434)">
<path d="M16.3897 2.19454C16.387 1.50029 15.8221 0.939662 15.1278 0.942331C14.4336 0.945001 13.8729 1.50996 13.8756 2.20421L13.9813 29.6899C13.984 30.3841 14.5489 30.9448 15.2432 30.9421C15.9374 30.9394 16.4981 30.3745 16.4954 29.6802L16.3897 2.19454Z" fill="black"/>
<path d="M28.9332 17.1464C29.6274 17.1437 30.1881 16.5788 30.1854 15.8845C30.1827 15.1903 29.6178 14.6296 28.9235 14.6323L1.43783 14.738C0.743582 14.7407 0.182948 15.3056 0.185617 15.9999C0.188287 16.6941 0.75325 17.2548 1.4475 17.2521L28.9332 17.1464Z" fill="black"/>
<path d="M24.0554 26.5158C24.5481 27.0049 25.3441 27.0018 25.8331 26.509C26.3221 26.0162 26.319 25.2203 25.8262 24.7313L6.31619 5.37072C5.82339 4.8817 5.02747 4.88476 4.53846 5.37755C4.04944 5.87035 4.0525 6.66627 4.54529 7.15528L24.0554 26.5158Z" fill="black"/>
<path d="M4.61399 24.8121C4.12497 25.3048 4.12803 26.1008 4.62083 26.5898C5.11362 27.0788 5.90954 27.0757 6.39856 26.5829L25.7591 7.07289C26.2482 6.5801 26.2451 5.78418 25.7523 5.29516C25.2595 4.80614 24.4636 4.8092 23.9746 5.302L4.61399 24.8121Z" fill="black"/>
</g>
<defs>
<clipPath id="clip0_232_3434">
<rect width="31" height="31" fill="white"/>
</clipPath>
</defs>
</svg>
